<svg width="33" height="33" viewBox="0 0 33 33" fill="none" xmlns="http://www.w3.org/2000/svg">
<path d="M16.5 0C7.38817 0 0 7.38817 0 16.5C0 25.6118 7.38817 33 16.5 33C25.6118 33 33 25.6118 33 16.5C33 7.38817 25.6118 0 16.5 0ZM21.8073 16.7541L13.7635 22.6065C13.7194 22.6382 13.6674 22.6571 13.6133 22.6611C13.5591 22.6652 13.5049 22.6543 13.4566 22.6295C13.4082 22.6048 13.3676 22.5672 13.3393 22.5209C13.3109 22.4746 13.2958 22.4214 13.2958 22.3671V10.6698C13.2956 10.6153 13.3105 10.5619 13.3388 10.5155C13.3671 10.469 13.4077 10.4313 13.4562 10.4065C13.5046 10.3817 13.559 10.3708 13.6132 10.375C13.6674 10.3792 13.7195 10.3984 13.7635 10.4304L21.8073 16.279C21.8453 16.3059 21.8763 16.3415 21.8977 16.3828C21.919 16.4242 21.9302 16.47 21.9302 16.5166C21.9302 16.5631 21.919 16.609 21.8977 16.6503C21.8763 16.6917 21.8453 16.7273 21.8073 16.7541Z" fill="white"/>
</svg>
